<svg width="48" height="48" viewBox="0 0 48 48" fill="none" xmlns="http://www.w3.org/2000/svg">
<path d="M30 29C29.9983 30.0152 30.218 31.0185 30.644 31.94C31.3637 33.5433 31.8215 35.2517 32 37C31.9027 38.6128 31.6624 40.2137 31.282 41.784C31.2497 41.9301 31.2506 42.0816 31.2846 42.2273C31.3186 42.373 31.3849 42.5093 31.4785 42.6259C31.5722 42.7426 31.6909 42.8368 31.8258 42.9016C31.9607 42.9663 32.1084 42.9999 32.258 43H35.18C35.4105 43 35.634 42.9204 35.8126 42.7747C35.9912 42.6289 36.1139 42.4259 36.16 42.2L37 38C38.0652 36.9926 39.182 36.0414 40.346 35.15C41.3894 34.4775 42.2624 33.572 42.8965 32.5049C43.5305 31.4377 43.9083 30.2379 44 29C44 25.134 40.752 22.938 37 22C29.552 20.138 31.246 14 22 14C15.832 14 10.98 18.462 5.60001 22.026" stroke="white" stroke-width="2" stroke-linecap="round" stroke-linejoin="round"/>
<path d="M1.08199 15C1.71987 15.8287 2.18206 16.7788 2.44031 17.7922C2.69856 18.8056 2.74745 19.8611 2.58399 20.894C1.93657 22.5712 1.4112 24.293 1.01199 26.046C1.09599 27.046 1.86199 28.984 3.25799 28.866C4.25799 28.782 5.90999 24.628 5.57399 20.642C5.36862 19.3965 4.84806 18.2243 4.06182 17.2368C3.27557 16.2492 2.24978 15.4792 1.08199 15Z" stroke="white" stroke-width="2" stroke-linecap="round" stroke-linejoin="round"/>
<path d="M1 26C1 26 1 33 2 34C3 35 6 33 7 32C8.25158 30.6314 8.96247 28.8542 9 27" stroke="white" stroke-width="2" stroke-linecap="round" stroke-linejoin="round"/>
<path d="M18 32C18.6953 32.8406 19.0519 33.9104 19 35C18.8178 37.2838 18.31 39.5299 17.492 41.67C17.4393 41.8207 17.4235 41.9819 17.4458 42.14C17.4682 42.2981 17.5281 42.4486 17.6205 42.5788C17.7129 42.709 17.8352 42.8152 17.9771 42.8885C18.1189 42.9618 18.2763 43 18.436 43H19.42C19.5983 43 19.7733 42.9524 19.927 42.862C20.0806 42.7716 20.2074 42.6418 20.294 42.486L25 34H31.414" stroke="white" stroke-width="2" stroke-linecap="round" stroke-linejoin="round"/>
<path d="M8.28799 30.086C11.62 30.0756 14.921 30.7262 18 32" stroke="white" stroke-width="2" stroke-linecap="round" stroke-linejoin="round"/>
<path d="M14.222 30.786L14 31C14 31 10 35 10 36C10.3081 37.1566 10.8186 38.2495 11.508 39.228C11.639 39.4402 11.8445 39.5957 12.0843 39.6641C12.3241 39.7326 12.5807 39.709 12.804 39.598L13.542 39.228C13.671 39.1638 13.7846 39.0725 13.8751 38.9603C13.9655 38.8481 14.0306 38.7177 14.066 38.578C14.228 37.9768 14.5509 37.4312 15 37C16.2197 36.1269 17.5697 35.4519 19 35" stroke="white" stroke-width="2" stroke-linecap="round" stroke-linejoin="round"/>
<path d="M43.744 30.738C43.4276 31.8201 43.5187 32.9806 44 34C44.2747 34.6749 44.6816 35.288 45.1968 35.8032C45.712 36.3184 46.3251 36.7253 47 37L46.14 42.164C46.1011 42.3978 45.9804 42.6103 45.7995 42.7634C45.6185 42.9165 45.3891 43.0004 45.152 43H43.352C43.2056 43 43.061 42.9679 42.9284 42.9058C42.7958 42.8438 42.6784 42.7534 42.5846 42.6411C42.4907 42.5287 42.4227 42.3971 42.3853 42.2556C42.3478 42.1141 42.3419 41.9661 42.368 41.822C42.5558 40.8664 42.4266 39.8755 42 39C41.5616 38.3737 40.9767 37.864 40.2962 37.5155C39.6158 37.1669 38.8605 36.9899 38.096 37" stroke="white" stroke-width="2" stroke-linecap="round" stroke-linejoin="round"/>
<path d="M43.2 25.938C44.0105 25.6421 44.712 25.1073 45.212 24.4041C45.712 23.701 45.9867 22.8627 46 22C46 19 43 18 41 18C39.8305 18.0307 38.6714 17.7731 37.625 17.2499C36.5786 16.7267 35.6771 15.954 35 15C34.7143 14.372 34.5665 13.69 34.5665 13C34.5665 12.31 34.7143 11.628 35 11M35 11C34.7143 10.372 34.5665 9.68998 34.5665 9C34.5665 8.31002 34.7143 7.62805 35 7C35.276 6.42923 35.6998 5.94274 36.2274 5.59105C36.7549 5.23936 37.367 5.03528 38 5C38.2857 5.62805 38.4335 6.31002 38.4335 7C38.4335 7.68998 38.2857 8.37195 38 9C37.724 9.57077 37.3002 10.0573 36.7726 10.4089C36.2451 10.7606 35.633 10.9647 35 11Z" stroke="white" stroke-width="2" stroke-linecap="round" stroke-linejoin="round"/>
</svg>
